# This file uses centimeters as units for non-parametric coordinates.

mtllib Bird.mtl
g default
v 0.334076 1.868352 -3.993217
v 0.127606 1.924963 -3.993217
v -0.127606 1.924963 -3.993217
v -0.334076 1.868351 -3.993217
v -0.412941 1.776751 -3.993217
v -0.334076 1.685152 -3.993217
v -0.127606 1.628542 -3.993217
v 0.127606 1.628542 -3.993217
v 0.334076 1.685152 -3.993217
v 0.412940 1.776751 -3.993217
v 0.595334 2.266418 2.912124
v 0.506421 2.395723 2.794945
v 0.367937 2.498340 2.701952
v 0.193436 2.564225 2.642247
v -0.000000 2.586926 2.621673
v -0.193436 2.564225 2.642247
v -0.367937 2.498340 2.701952
v -0.506421 2.395723 2.794945
v -0.595334 2.266418 2.912124
v -0.625971 2.123082 3.042018
v -0.595334 1.979745 3.171912
v -0.506421 1.850441 3.289090
v -0.367937 1.747825 3.382082
v -0.193436 1.681941 3.441788
v -0.000000 1.659240 3.462361
v 0.193435 1.681941 3.441788
v 0.367936 1.747825 3.382083
v 0.506421 1.850441 3.289090
v 0.595334 1.979746 3.171912
v 0.625970 2.123082 3.042018
v -0.000000 1.776751 -3.993217
v 1.059391 1.103325 1.166502
v 1.245388 0.738284 1.166502
v 1.309478 0.333633 1.166502
v 1.245387 -0.071018 1.166502
v 1.059390 -0.436059 1.166502
v 0.769692 -0.725757 1.166502
v 0.404651 -0.911755 1.166502
v -0.000000 -0.975845 1.166502
v -0.404651 -0.911755 1.166502
v -0.769692 -0.725757 1.166502
v -1.059390 -0.436059 1.166502
v -1.245388 -0.071018 1.166502
v -1.309478 0.333633 1.166502
v -1.245388 0.738284 1.166502
v -1.059390 1.103325 1.166502
v -0.769692 1.393023 1.166502
v -0.404651 1.579021 1.166502
v 0.000000 1.643111 1.166502
v 0.404651 1.579021 1.166502
v 0.769692 1.393023 1.166502
v 1.059391 1.101173 -1.748634
v 1.245388 0.736132 -1.748634
v 1.309478 0.331481 -1.748634
v 1.245387 -0.073170 -1.748634
v 1.059390 -0.438210 -1.748634
v 0.769692 -0.727908 -1.748634
v 0.404651 -0.913906 -1.748634
v -0.000000 -0.977996 -1.748634
v -0.404651 -0.913906 -1.748634
v -0.769692 -0.727908 -1.748634
v -1.059390 -0.438211 -1.748634
v -1.245388 -0.073170 -1.748634
v -1.309478 0.331481 -1.748634
v -1.245388 0.736132 -1.748634
v -1.059390 1.101173 -1.748634
v -0.769692 1.390871 -1.748634
v -0.404651 1.576869 -1.748634
v 0.000000 1.640960 -1.748634
v 0.404651 1.576869 -1.748634
v 0.769692 1.390872 -1.748634
v 0.478580 2.461179 4.092440
v 0.387178 2.742483 4.093745
v 0.147888 2.916334 4.094551
v -0.147891 2.916335 4.094551
v -0.387179 2.742484 4.093744
v -0.478580 2.461180 4.092440
v -0.387180 2.179882 4.091136
v -0.147889 2.006031 4.090331
v 0.147892 2.006033 4.090332
v 0.387179 2.179880 4.091136
v 0.000000 2.306398 4.954605
v 2.395901 1.581240 -1.477756
v 3.918408 2.098103 -0.994762
v 2.581898 1.417118 -1.477756
v 2.395901 1.583392 0.894619
v 3.918408 2.100255 0.410619
v 2.581898 1.419269 0.894619
v -2.581898 1.417118 -1.477756
v -3.918407 2.098104 -0.994762
v -2.395900 1.581240 -1.477756
v -2.581898 1.419270 0.894619
v -3.918407 2.100255 0.410619
v -2.395900 1.583392 0.894619
vt 0.637506 0.086187
vt 0.570063 0.018744
vt 0.475858 0.003824
vt 0.390875 0.047125
vt 0.347574 0.132108
vt 0.362494 0.226313
vt 0.429937 0.293756
vt 0.524142 0.308676
vt 0.609125 0.265375
vt 0.652426 0.180392
vt 0.381250 0.312500
vt 0.406250 0.312500
vt 0.431250 0.312500
vt 0.456250 0.312500
vt 0.481250 0.312500
vt 0.506250 0.312500
vt 0.531250 0.312500
vt 0.556250 0.312500
vt 0.581250 0.312500
vt 0.606250 0.312500
vt 0.625000 0.312500
vt 0.375000 0.688440
vt 0.387500 0.688440
vt 0.400000 0.688440
vt 0.412500 0.688440
vt 0.425000 0.688440
vt 0.437500 0.688440
vt 0.450000 0.688440
vt 0.462500 0.688440
vt 0.475000 0.688440
vt 0.487500 0.688440
vt 0.500000 0.688440
vt 0.512500 0.688440
vt 0.525000 0.688440
vt 0.537500 0.688440
vt 0.550000 0.688440
vt 0.562500 0.688440
vt 0.575000 0.688440
vt 0.587500 0.688440
vt 0.600000 0.688440
vt 0.612500 0.688440
vt 0.625000 0.688440
vt 0.648603 0.795466
vt 0.626409 0.751908
vt 0.591842 0.717341
vt 0.548284 0.695147
vt 0.500000 0.687500
vt 0.451716 0.695147
vt 0.408159 0.717341
vt 0.373591 0.751909
vt 0.351397 0.795466
vt 0.343750 0.843750
vt 0.351397 0.892034
vt 0.373591 0.935591
vt 0.408159 0.970159
vt 0.451716 0.992353
vt 0.500000 1.000000
vt 0.548284 0.992353
vt 0.591841 0.970159
vt 0.626409 0.935591
vt 0.648603 0.892034
vt 0.656250 0.843750
vt 0.500000 0.150000
vt 0.419242 0.961628
vt 0.387500 0.564642
vt 0.625000 0.564642
vt 0.375000 0.564642
vt 0.612500 0.564642
vt 0.600000 0.564642
vt 0.587500 0.564642
vt 0.575000 0.564642
vt 0.562500 0.564642
vt 0.550000 0.564642
vt 0.537500 0.564642
vt 0.525000 0.564642
vt 0.512500 0.564642
vt 0.500000 0.564642
vt 0.487500 0.564642
vt 0.475000 0.564642
vt 0.462500 0.564642
vt 0.450000 0.564642
vt 0.437500 0.564642
vt 0.425000 0.564642
vt 0.412500 0.564642
vt 0.400000 0.564642
vt 0.387500 0.404274
vt 0.625000 0.404274
vt 0.375000 0.404274
vt 0.612500 0.404274
vt 0.600000 0.404274
vt 0.587500 0.404274
vt 0.575000 0.404274
vt 0.562500 0.404274
vt 0.550000 0.404274
vt 0.537500 0.404274
vt 0.525000 0.404274
vt 0.512500 0.404274
vt 0.500000 0.404274
vt 0.487500 0.404274
vt 0.475000 0.404274
vt 0.462500 0.404274
vt 0.450000 0.404274
vt 0.437500 0.404274
vt 0.425000 0.404274
vt 0.412500 0.404274
vt 0.400000 0.404274
vt 0.652426 0.867892
vt 0.609125 0.952875
vt 0.524142 0.996176
vt 0.429937 0.981256
vt 0.362494 0.913813
vt 0.347574 0.819608
vt 0.390875 0.734625
vt 0.475858 0.691324
vt 0.570063 0.706244
vt 0.637506 0.773687
vt 0.375000 0.404274
vt 0.381250 0.404274
vt 0.387500 0.404274
vt 0.387500 0.564642
vt 0.381250 0.564642
vt 0.375000 0.564642
vt 0.462500 0.404274
vt 0.468750 0.404274
vt 0.475000 0.404274
vt 0.475000 0.564642
vt 0.468750 0.564642
vt 0.462500 0.564642
vn 0.456568 0.884417 0.096709
vn 0.801785 0.594449 -0.061414
vn 0.969607 0.190072 -0.154062
vn 0.159412 0.978864 0.128110
vn 0.609071 0.792973 0.015033
vn 0.324686 0.944748 0.045061
vn -0.119252 0.984966 0.124982
vn 0.000000 0.998305 0.058194
vn -0.319648 0.946221 0.049912
vn -0.435848 0.896030 0.084659
vn -0.609390 0.792678 0.017481
vn -0.800842 0.596389 -0.054523
vn -0.921529 0.257775 -0.290409
vn -0.969648 0.190878 -0.152804
vn -0.979920 -0.038619 -0.195613
vn -0.429912 -0.599557 -0.675061
vn -0.906120 -0.326658 -0.268777
vn -0.744649 -0.573972 -0.340666
vn -0.122997 -0.663450 -0.738042
vn -0.529469 -0.753228 -0.390269
vn -0.272492 -0.866497 -0.418248
vn 0.090184 -0.657042 -0.748440
vn -0.001917 -0.902697 -0.430272
vn 0.273022 -0.866536 -0.417821
vn 0.395747 -0.588242 -0.705235
vn 0.527977 -0.757832 -0.383316
vn 0.748671 -0.574175 -0.331383
vn 0.923299 0.223510 -0.312351
vn 0.906215 -0.328871 -0.265741
vn 0.981460 -0.038041 -0.187855
vn 0.000000 -0.000000 -1.000000
vn 0.000000 -0.000000 -1.000000
vn 0.000000 -0.000000 -1.000000
vn 0.000000 0.000001 -1.000000
vn 0.000000 -0.000000 -1.000000
vn 0.000000 -0.000000 -1.000000
vn 0.000000 -0.000000 -1.000000
vn 0.000000 -0.000002 -1.000000
vn 0.000000 -0.000001 -1.000000
vn 0.000000 -0.000000 -1.000000
vn 0.000000 -0.000000 -1.000000
vn 0.979413 0.176771 0.097482
vn 0.799953 0.597053 -0.060027
vn 0.900013 0.434927 -0.028558
vn 0.767123 0.616423 -0.177610
vn 0.984446 -0.042957 0.170355
vn 0.973104 0.164097 0.161679
vn 0.906724 -0.332265 0.259714
vn 0.938513 -0.061309 0.339756
vn 0.746848 -0.575860 0.332570
vn 0.798655 -0.332056 0.501885
vn 0.527971 -0.756625 0.385702
vn 0.591594 -0.508607 0.625568
vn 0.272759 -0.866619 0.417821
vn 0.309433 -0.649356 0.694685
vn 0.000000 -0.902203 0.431312
vn 0.000001 -0.696951 0.717119
vn -0.272759 -0.866619 0.417821
vn -0.309434 -0.649356 0.694685
vn -0.527971 -0.756624 0.385702
vn -0.587234 -0.524524 0.616466
vn -0.746848 -0.575860 0.332570
vn -0.806520 -0.321456 0.496177
vn -0.906724 -0.332265 0.259714
vn -0.939401 -0.080787 0.333164
vn -0.984446 -0.042957 0.170355
vn -0.972387 0.179508 0.149131
vn -0.979412 0.176773 0.097481
vn -0.907017 0.419995 -0.030391
vn -0.799953 0.597052 -0.060027
vn -0.753819 0.628420 -0.191951
vn -0.605636 0.783841 -0.137107
vn -0.534286 0.787130 -0.308164
vn -0.317095 0.927290 -0.198957
vn -0.270181 0.881543 -0.387150
vn -0.000000 0.976426 -0.215853
vn -0.000001 0.919631 -0.392783
vn 0.317095 0.927290 -0.198957
vn 0.290173 0.879916 -0.376228
vn 0.605636 0.783841 -0.137107
vn 0.523224 0.793967 -0.309601
vn 0.961205 0.111359 0.252357
vn 0.736480 0.656582 0.162780
vn 0.280889 0.952061 0.121169
vn -0.262421 0.955515 0.134631
vn -0.726724 0.663692 0.177158
vn -0.954650 0.118047 0.273328
vn -0.798376 -0.474051 0.371310
vn -0.311219 -0.855517 0.413804
vn 0.320207 -0.856143 0.405569
vn 0.800025 -0.484573 0.353764
vn -0.000001 -0.202944 0.979190
vn 0.168239 0.085722 -0.982012
vn 0.162018 0.168577 -0.972282
vn 0.165549 0.089425 -0.982139
vn 0.183325 0.207759 -0.960848
vn 0.216486 0.245340 -0.944956
vn -0.337923 0.941173 -0.000695
vn -0.338012 0.941141 -0.000745
vn -0.330037 0.943968 -0.000817
vn -0.330134 0.943933 -0.000895
vn -0.321585 0.946880 -0.001189
vn -0.321875 0.946781 -0.001449
vn 0.168841 0.086029 0.981882
vn 0.166142 0.089746 0.982010
vn 0.162478 0.169045 0.972124
vn 0.183747 0.208238 0.960663
vn 0.216888 0.245796 0.944745
vn 0.453884 -0.891060 0.000658
vn 0.453899 -0.891053 0.000770
vn 0.453956 -0.891024 0.000703
vn 0.454000 -0.891001 0.000844
vn 0.454093 -0.890953 0.001107
vn 0.454382 -0.890806 0.001364
vn -0.168239 0.085722 -0.982012
vn -0.165549 0.089425 -0.982139
vn -0.162018 0.168577 -0.972282
vn -0.183325 0.207759 -0.960848
vn -0.216486 0.245340 -0.944956
vn -0.453884 -0.891060 0.000658
vn -0.453956 -0.891024 0.000703
vn -0.453900 -0.891053 0.000770
vn -0.454000 -0.891001 0.000844
vn -0.454094 -0.890953 0.001107
vn -0.454382 -0.890806 0.001364
vn -0.168841 0.086029 0.981882
vn -0.162478 0.169045 0.972124
vn -0.166141 0.089745 0.982010
vn -0.183747 0.208238 0.960663
vn -0.216888 0.245796 0.944745
vn 0.337924 0.941173 -0.000695
vn 0.330037 0.943968 -0.000817
vn 0.338012 0.941141 -0.000745
vn 0.330135 0.943933 -0.000895
vn 0.321585 0.946880 -0.001189
vn 0.321876 0.946781 -0.001449
s 1
g pCylinder1
usemtl initialShadingGroup
f 1/11/1 52/86/2 53/88/3
f 2/12/4 71/106/5 1/11/1
f 1/11/1 71/106/5 52/86/2
f 2/12/4 70/105/6 71/106/5
f 3/13/7 69/104/8 2/12/4
f 2/12/4 69/104/8 70/105/6
f 3/13/7 68/103/9 69/104/8
f 3/13/7 4/14/10 68/103/9
f 68/103/9 4/14/10 67/102/11
f 4/14/10 66/101/12 67/102/11
f 4/14/10 5/15/13 66/101/12
f 66/101/12 5/15/13 65/100/14
f 5/15/13 64/99/15 65/100/14
f 5/15/13 6/16/16 64/99/15
f 64/99/15 6/16/16 63/98/17
f 6/16/16 62/97/18 63/98/17
f 6/16/16 7/17/19 62/97/18
f 62/97/18 7/17/19 61/96/20
f 7/17/19 60/95/21 61/96/20
f 7/17/19 8/18/22 60/95/21
f 60/95/21 8/18/22 59/94/23
f 8/18/22 58/93/24 59/94/23
f 9/19/25 57/92/26 8/18/22
f 8/18/22 57/92/26 58/93/24
f 9/19/25 56/91/27 57/92/26
f 10/20/28 55/90/29 9/19/25
f 9/19/25 55/90/29 56/91/27
f 10/20/28 54/89/30 55/90/29
f 1/21/1 53/87/3 10/20/28
f 10/20/28 53/87/3 54/89/30
s 6
f 2/2/31 1/1/32 31/63/33
f 3/3/34 2/2/31 31/63/33
f 4/4/35 3/3/34 31/63/33
f 5/5/36 4/4/35 31/63/33
f 6/6/37 5/5/36 31/63/33
f 7/7/38 6/6/37 31/63/33
f 8/8/39 7/7/38 31/63/33
f 9/9/40 8/8/39 31/63/33
f 10/10/41 9/9/40 31/63/33
f 1/1/32 10/10/41 31/63/33
s 1
f 33/67/42 32/65/43 11/22/44
f 11/22/44 32/65/43 12/23/45
f 34/68/46 33/66/42 30/41/47
f 30/41/47 33/66/42 11/42/44
f 35/69/48 34/68/46 29/40/49
f 29/40/49 34/68/46 30/41/47
f 36/70/50 35/69/48 28/39/51
f 28/39/51 35/69/48 29/40/49
f 37/71/52 36/70/50 27/38/53
f 27/38/53 36/70/50 28/39/51
f 38/72/54 37/71/52 26/37/55
f 26/37/55 37/71/52 27/38/53
f 39/73/56 38/72/54 25/36/57
f 25/36/57 38/72/54 26/37/55
f 39/73/56 25/36/57 40/74/58
f 40/74/58 25/36/57 24/35/59
f 40/74/58 24/35/59 41/75/60
f 41/75/60 24/35/59 23/34/61
f 41/75/60 23/34/61 42/76/62
f 42/76/62 23/34/61 22/33/63
f 42/76/62 22/33/63 43/77/64
f 43/77/64 22/33/63 21/32/65
f 43/77/64 21/32/65 44/78/66
f 44/78/66 21/32/65 20/31/67
f 44/78/66 20/31/67 45/79/68
f 45/79/68 20/31/67 19/30/69
f 45/79/68 19/30/69 46/80/70
f 46/80/70 19/30/69 18/29/71
f 46/80/70 18/29/71 47/81/72
f 47/81/72 18/29/71 17/28/73
f 47/81/72 17/28/73 48/82/74
f 48/82/74 17/28/73 16/27/75
f 48/82/74 16/27/75 49/83/76
f 49/83/76 16/27/75 15/26/77
f 50/84/78 49/83/76 14/25/79
f 14/25/79 49/83/76 15/26/77
f 51/85/80 50/84/78 13/24/81
f 13/24/81 50/84/78 14/25/79
f 32/65/43 51/85/80 12/23/45
f 12/23/45 51/85/80 13/24/81
f 54/89/30 53/87/3 34/68/46
f 34/68/46 53/87/3 33/66/42
f 55/90/29 54/89/30 35/69/48
f 35/69/48 54/89/30 34/68/46
f 56/91/27 55/90/29 36/70/50
f 36/70/50 55/90/29 35/69/48
f 57/92/26 56/91/27 37/71/52
f 37/71/52 56/91/27 36/70/50
f 58/93/24 57/92/26 38/72/54
f 38/72/54 57/92/26 37/71/52
f 59/94/23 58/93/24 39/73/56
f 39/73/56 58/93/24 38/72/54
f 60/95/21 59/94/23 40/74/58
f 40/74/58 59/94/23 39/73/56
f 60/95/21 40/74/58 61/96/20
f 61/96/20 40/74/58 41/75/60
f 61/96/20 41/75/60 62/97/18
f 62/97/18 41/75/60 42/76/62
f 62/97/18 42/76/62 63/98/17
f 63/98/17 42/76/62 43/77/64
f 63/98/17 43/77/64 64/99/15
f 64/99/15 43/77/64 44/78/66
f 64/99/15 44/78/66 65/100/14
f 65/100/14 44/78/66 45/79/68
f 66/101/12 46/80/70 67/102/11
f 67/102/11 46/80/70 47/81/72
f 67/102/11 47/81/72 68/103/9
f 68/103/9 47/81/72 48/82/74
f 69/104/8 68/103/9 49/83/76
f 49/83/76 68/103/9 48/82/74
f 70/105/6 69/104/8 50/84/78
f 50/84/78 69/104/8 49/83/76
f 71/106/5 70/105/6 51/85/80
f 51/85/80 70/105/6 50/84/78
f 52/86/2 71/106/5 32/65/43
f 32/65/43 71/106/5 51/85/80
f 11/61/44 12/60/45 72/107/82
f 72/107/82 12/60/45 73/108/83
f 12/60/45 13/59/81 73/108/83
f 13/59/81 14/58/79 73/108/83
f 73/108/83 14/58/79 74/109/84
f 14/58/79 15/57/77 74/109/84
f 16/56/75 75/110/85 15/57/77
f 15/57/77 75/110/85 74/109/84
f 16/56/75 17/55/73 75/110/85
f 18/54/71 76/111/86 17/55/73
f 17/55/73 76/111/86 75/110/85
f 18/54/71 19/53/69 76/111/86
f 20/52/67 77/112/87 19/53/69
f 19/53/69 77/112/87 76/111/86
f 20/52/67 21/51/65 77/112/87
f 22/50/63 78/113/88 21/51/65
f 21/51/65 78/113/88 77/112/87
f 22/50/63 23/49/61 78/113/88
f 24/48/59 79/114/89 23/49/61
f 23/49/61 79/114/89 78/113/88
f 24/48/59 25/47/57 79/114/89
f 26/46/55 80/115/90 25/47/57
f 25/47/57 80/115/90 79/114/89
f 26/46/55 27/45/53 80/115/90
f 27/45/53 28/44/51 80/115/90
f 80/115/90 28/44/51 81/116/91
f 28/44/51 29/43/49 81/116/91
f 29/43/49 30/62/47 81/116/91
f 81/116/91 30/62/47 72/107/82
f 30/62/47 11/61/44 72/107/82
f 72/107/82 73/108/83 82/64/92
f 73/108/83 74/109/84 82/64/92
f 74/109/84 75/110/85 82/64/92
f 75/110/85 76/111/86 82/64/92
f 76/111/86 77/112/87 82/64/92
f 77/112/87 78/113/88 82/64/92
f 78/113/88 79/114/89 82/64/92
f 79/114/89 80/115/90 82/64/92
f 80/115/90 81/116/91 82/64/92
f 81/116/91 72/107/82 82/64/92
s 16
f 52/86/93 83/119/94 53/88/95
f 53/88/95 83/119/94 85/117/96
f 85/117/96 83/119/94 84/118/97
s 17
f 52/86/98 32/65/99 83/119/100
f 83/119/100 32/65/99 86/120/101
f 83/119/100 86/120/101 84/118/102
f 84/118/102 86/120/101 87/121/103
s 18
f 32/65/104 33/67/105 86/120/106
f 86/120/106 33/67/105 88/122/107
f 86/120/106 88/122/107 87/121/108
s 19
f 53/88/109 85/117/110 33/67/111
f 33/67/111 85/117/110 88/122/112
f 85/117/110 84/118/113 88/122/112
f 88/122/112 84/118/113 87/121/114
s 20
f 66/101/115 65/100/116 91/123/117
f 91/123/117 65/100/116 89/125/118
f 91/123/117 89/125/118 90/124/119
s 21
f 65/100/120 45/79/121 89/125/122
f 89/125/122 45/79/121 92/126/123
f 89/125/122 92/126/123 90/124/124
f 90/124/124 92/126/123 93/127/125
s 22
f 46/80/126 94/128/127 45/79/128
f 45/79/128 94/128/127 92/126/129
f 92/126/129 94/128/127 93/127/130
s 23
f 66/101/131 91/123/132 46/80/133
f 46/80/133 91/123/132 94/128/134
f 91/123/132 90/124/135 94/128/134
f 94/128/134 90/124/135 93/127/136
